<svg width="53" height="52" viewBox="0 0 53 52" fill="none" xmlns="http://www.w3.org/2000/svg">
<path d="M52.8364 26.0375C52.8364 40.3615 41.1609 51.9635 26.7462 51.9635C12.3316 51.9635 0.656128 40.3615 0.656128 26.0375C0.656128 11.7135 12.3316 0.111572 26.7462 0.111572C41.1385 0.111572 52.8364 11.7135 52.8364 26.0375Z" fill="#182425"/>
<path d="M23.6703 25.0113C24.3887 24.6543 24.9276 24.2527 25.2869 23.8288C25.938 23.0479 26.2748 22.0216 26.2748 20.7498C26.2748 19.5227 25.938 18.4517 25.2869 17.5593C24.2091 16.109 22.368 15.3727 19.7635 15.3281H9.4801V36.1894H19.0674C20.1452 36.1894 21.1555 36.1001 22.0761 35.8993C22.9967 35.7208 23.805 35.3638 24.4786 34.8507C25.0848 34.4044 25.5787 33.8467 25.9829 33.1996C26.6116 32.2179 26.9259 31.1023 26.9259 29.8752C26.9259 28.6704 26.6565 27.6664 26.0951 26.8185C25.5787 26.0153 24.7704 25.4129 23.6703 25.0113ZM13.7461 18.9649H18.3714C19.3818 18.9649 20.235 19.0765 20.8861 19.2773C21.6495 19.5896 22.0312 20.2367 22.0312 21.196C22.0312 22.0662 21.7393 22.6909 21.1555 23.0256C20.5718 23.3603 19.8308 23.5388 18.9103 23.5388H13.7237V18.9649H13.7461ZM21.0657 32.2179C20.5493 32.4633 19.8308 32.5972 18.9103 32.5972H13.7461V27.0417H18.9776C19.8982 27.0417 20.5942 27.1755 21.1106 27.3986C22.0087 27.8002 22.4578 28.5588 22.4578 29.6298C22.4803 30.9015 22.0087 31.7717 21.0657 32.2179Z" fill="white"/>
<path d="M40.6221 16.3098H31.5062V18.8979H40.6221V16.3098Z" fill="white"/>
<path d="M43.8104 26.5731C43.6308 25.3683 43.2042 24.2973 42.5531 23.3826C41.8346 22.3339 40.9365 21.5753 39.8363 21.1068C38.7361 20.6159 37.5012 20.3928 36.1316 20.3928C33.8189 20.3928 31.9553 21.1068 30.4959 22.5347C29.0589 23.9627 28.318 26.0153 28.318 28.6927C28.318 31.5486 29.1263 33.6012 30.7204 34.873C32.3146 36.1447 34.1782 36.7694 36.2663 36.7694C38.8034 36.7694 40.7793 36.0109 42.1938 34.516C43.0919 33.5789 43.6083 32.6418 43.7206 31.7271H39.5219C39.275 32.1733 39.0055 32.5303 38.6687 32.798C38.085 33.2219 37.344 33.4673 36.401 33.4673C35.5029 33.4673 34.7619 33.2665 34.1333 32.8872C33.1004 32.2625 32.5616 31.1693 32.4718 29.6298H43.9451C43.9676 28.2911 43.9227 27.2648 43.8104 26.5731ZM32.584 26.9747C32.7412 25.9707 33.1004 25.1675 33.6842 24.5874C34.268 24.0073 35.0763 23.6949 36.1316 23.6949C37.097 23.6949 37.9278 23.9627 38.5789 24.5204C39.23 25.0782 39.6117 25.8814 39.6791 26.9524H32.584V26.9747Z" fill="white"/>
</svg>
