<svg width="53" height="53" viewBox="0 0 53 53" fill="none" xmlns="http://www.w3.org/2000/svg">
<path d="M52.7171 26.0375C52.7171 40.4284 40.9743 52.075 26.5147 52.075C12.0551 52.075 0.312288 40.4061 0.312288 26.0375C0.289835 11.6689 12.0326 0 26.5147 0C40.9967 0 52.7171 11.6689 52.7171 26.0375Z" fill="#182425"/>
<path d="M26.5147 12.4275C30.9828 12.4275 31.4992 12.4498 33.2729 12.5167C34.8895 12.5837 35.7876 12.8514 36.3714 13.0968C37.1573 13.4092 37.7186 13.7662 38.3024 14.3463C38.8861 14.9264 39.2454 15.4842 39.5597 16.2651C39.7843 16.8452 40.0537 17.7376 40.1435 19.344C40.2333 21.0843 40.2333 21.6198 40.2333 26.0598C40.2333 30.4998 40.2108 31.0129 40.1435 32.7756C40.0761 34.4043 39.8067 35.2744 39.5597 35.8545C39.2678 36.6354 38.8861 37.1709 38.3024 37.751C37.7186 38.3311 37.1573 38.6881 36.3714 39.0005C35.7876 39.2236 34.8895 39.4913 33.2729 39.5806C31.4992 39.6698 30.9828 39.6698 26.5147 39.6698C22.0466 39.6698 21.5302 39.6475 19.7564 39.5806C18.1173 39.5136 17.2417 39.2459 16.6579 39.0005C15.872 38.6881 15.3107 38.3311 14.727 37.751C14.1432 37.1709 13.7839 36.6131 13.4696 35.8545C13.2451 35.2744 12.9756 34.382 12.8858 32.7756C12.796 31.0129 12.796 30.4998 12.796 26.0598C12.796 21.6198 12.8185 21.1067 12.8858 19.344C12.9532 17.7153 13.2226 16.8452 13.4696 16.2651C13.7615 15.4842 14.1432 14.9264 14.727 14.3463C15.3107 13.7662 15.872 13.4092 16.6579 13.0968C17.2417 12.8737 18.1398 12.606 19.7564 12.5167C21.5077 12.4498 22.0466 12.4275 26.5147 12.4275ZM26.5147 9.43774C21.9792 9.43774 21.4179 9.46006 19.6217 9.52699C17.8479 9.61624 16.6354 9.88397 15.5577 10.3079C14.4575 10.7318 13.537 11.3119 12.5939 12.2267C11.6734 13.1415 11.0896 14.0785 10.663 15.1718C10.2589 16.2204 9.96698 17.4253 9.87717 19.2102C9.78736 20.9728 9.78735 21.5529 9.78735 26.0598C9.78735 30.5667 9.80981 31.1245 9.87717 32.9094C9.96698 34.672 10.2364 35.8769 10.663 36.9478C11.0896 38.0411 11.6734 38.9558 12.5939 39.8929C13.5145 40.8077 14.4575 41.3878 15.5577 41.8117C16.613 42.2133 17.8254 42.5034 19.6217 42.5926C21.3954 42.6819 21.9792 42.6819 26.5147 42.6819C31.0501 42.6819 31.6339 42.6595 33.4077 42.5926C35.1814 42.5034 36.3939 42.2356 37.4716 41.8117C38.5718 41.3878 39.4924 40.8077 40.4354 39.8929C41.3559 38.9781 41.9397 38.0411 42.3663 36.9478C42.7705 35.8992 43.0624 34.6943 43.1522 32.9094C43.242 31.1468 43.242 30.5667 43.242 26.0598C43.242 21.5529 43.2195 20.9951 43.1522 19.2102C43.0624 17.4476 42.7929 16.2427 42.3663 15.1718C41.9397 14.0785 41.3784 13.1638 40.4354 12.2267C39.5148 11.3119 38.5718 10.7318 37.4716 10.3079C36.4163 9.90629 35.2039 9.61624 33.4077 9.52699C31.6114 9.46006 31.0501 9.43774 26.5147 9.43774ZM26.5147 17.5145C21.7771 17.5145 17.9377 21.3298 17.9377 26.0375C17.9377 30.7452 21.7771 34.5605 26.5147 34.5605C31.2522 34.5605 35.0916 30.7452 35.0916 26.0375C35.0916 21.3298 31.2522 17.5145 26.5147 17.5145ZM26.5147 31.5707C23.4386 31.5707 20.9464 29.0942 20.9464 26.0375C20.9464 22.9808 23.4386 20.5042 26.5147 20.5042C29.5907 20.5042 32.0829 22.9808 32.0829 26.0375C32.0829 29.0942 29.5907 31.5707 26.5147 31.5707ZM37.4267 17.1798C37.4267 18.2731 36.5286 19.1656 35.4284 19.1656C34.3282 19.1656 33.4301 18.2731 33.4301 17.1798C33.4301 16.0866 34.3282 15.1941 35.4284 15.1941C36.5286 15.1941 37.4267 16.0866 37.4267 17.1798Z" fill="white"/>
<path d="M52.717 26.1938C52.717 40.5847 40.9742 52.2313 26.5146 52.2313C12.0551 52.2313 0.312256 40.5623 0.312256 26.1938C0.312256 11.8028 12.0551 0.15625 26.5146 0.15625C40.9742 0.15625 52.717 11.8028 52.717 26.1938Z" fill="#182425"/>
<path d="M26.5147 12.963C30.8481 12.963 31.3645 12.9853 33.0709 13.0522C34.6651 13.1192 35.5183 13.3869 36.0796 13.61C36.843 13.9001 37.3819 14.2571 37.9432 14.8148C38.5045 15.3726 38.8638 15.9081 39.1556 16.6667C39.3802 17.2468 39.6496 18.0946 39.717 19.6564C39.7843 21.3521 39.8068 21.8653 39.8068 26.1714C39.8068 30.4775 39.7843 30.9907 39.717 32.6863C39.6496 34.2705 39.3802 35.1183 39.1556 35.6761C38.8638 36.4347 38.5045 36.9701 37.9432 37.5279C37.3819 38.0857 36.843 38.4427 36.0796 38.7328C35.5183 38.9559 34.6426 39.2236 33.0709 39.2905C31.3645 39.3798 30.8481 39.3798 26.5147 39.3798C22.1813 39.3798 21.6649 39.3575 19.9585 39.2905C18.3644 39.2236 17.5112 38.9559 16.9498 38.7328C16.1865 38.4427 15.6476 38.0857 15.0863 37.5279C14.5249 36.9701 14.1657 36.4347 13.8738 35.6761C13.6493 35.096 13.3798 34.2481 13.3125 32.6863C13.2227 30.9907 13.2227 30.4775 13.2227 26.1714C13.2227 21.8653 13.2451 21.3521 13.3125 19.6564C13.3798 18.0723 13.6493 17.2245 13.8738 16.6667C14.1657 15.9081 14.5249 15.3726 15.0863 14.8148C15.6476 14.2571 16.1865 13.9001 16.9498 13.61C17.5112 13.3869 18.3868 13.1192 19.9585 13.0522C21.6649 12.9853 22.1589 12.963 26.5147 12.963ZM26.5147 10.0625C22.114 10.0625 21.5527 10.0848 19.8238 10.1517C18.0949 10.241 16.9049 10.5087 15.8721 10.9103C14.7944 11.3119 13.8963 11.8697 12.9982 12.7622C12.1 13.6546 11.5387 14.5694 11.1121 15.6181C10.708 16.6444 10.4385 17.8269 10.3487 19.5449C10.2814 21.2629 10.2589 21.8207 10.2589 26.1937C10.2589 30.5668 10.2814 31.1245 10.3487 32.8425C10.4385 34.5605 10.708 35.743 11.1121 36.7693C11.5387 37.8403 12.0776 38.7328 12.9982 39.6252C13.8963 40.5177 14.7944 41.0755 15.8721 41.4771C16.9049 41.8787 18.0949 42.1464 19.8238 42.2357C21.5527 42.3249 22.114 42.3249 26.5147 42.3249C30.9155 42.3249 31.4768 42.3026 33.2057 42.2357C34.9345 42.1464 36.1245 41.8787 37.1573 41.4771C38.2351 41.0755 39.1332 40.5177 40.0313 39.6252C40.9294 38.7328 41.4907 37.818 41.9173 36.7693C42.3215 35.743 42.5909 34.5605 42.6807 32.8425C42.7481 31.1245 42.7705 30.5668 42.7705 26.1937C42.7705 21.7983 42.7481 21.2629 42.6807 19.5449C42.5909 17.8269 42.3215 16.6444 41.9173 15.6181C41.4907 14.5471 40.9519 13.6546 40.0313 12.7622C39.1332 11.8697 38.2126 11.3119 37.1573 10.9103C36.1245 10.5087 34.9345 10.241 33.2057 10.1517C31.4768 10.0625 30.9155 10.0625 26.5147 10.0625ZM26.5147 17.8938C21.9119 17.8938 18.1623 21.5975 18.1623 26.1937C18.1623 30.7676 21.8894 34.4713 26.5147 34.4713C31.1175 34.4713 34.8447 30.7676 34.8447 26.1937C34.8447 21.6198 31.1175 17.8938 26.5147 17.8938ZM26.5147 31.5708C23.5285 31.5708 21.1036 29.1611 21.1036 26.1937C21.1036 23.2263 23.5285 20.8166 26.5147 20.8166C29.5009 20.8166 31.9258 23.2263 31.9258 26.1937C31.9258 29.1611 29.5009 31.5708 26.5147 31.5708ZM37.1349 17.5815C37.1349 18.6524 36.2592 19.5226 35.1815 19.5226C34.1038 19.5226 33.2281 18.6524 33.2281 17.5815C33.2281 16.5105 34.1038 15.6404 35.1815 15.6404C36.2592 15.6404 37.1349 16.5105 37.1349 17.5815Z" fill="white"/>
</svg>
