<svg width="53" height="52" viewBox="0 0 53 52" fill="none" xmlns="http://www.w3.org/2000/svg">
<path d="M52.1802 26.0375C52.1802 40.3615 40.5048 51.9635 26.0901 51.9635C11.6754 51.9635 0 40.3615 0 26.0375C0 11.7135 11.6754 0.111572 26.0901 0.111572C40.5048 0.111572 52.1802 11.7135 52.1802 26.0375Z" fill="#182425"/>
<path d="M20.2973 20.0356H14.9984V36.2115H20.2973V20.0356Z" fill="white"/>
<path d="M34.7344 20.2141C34.667 20.1918 34.6221 20.1695 34.5548 20.1695C34.4874 20.1472 34.4201 20.1472 34.3303 20.1249C34.0608 20.0803 33.7465 20.0356 33.3872 20.0356C30.2888 20.0356 28.3354 22.2668 27.6842 23.1369V20.0356H22.3854V36.2115H27.6842V27.3761C27.6842 27.3761 31.6808 21.8429 33.3872 25.9036V36.2115H38.6861V25.3012C38.7085 22.8469 37.0021 20.8165 34.7344 20.2141Z" fill="white"/>
<path d="M17.6029 12.6729C19.0399 12.6729 20.185 13.833 20.185 15.2387C20.185 16.6443 19.0399 17.8268 17.6029 17.8268C16.166 17.8268 15.0209 16.6666 15.0209 15.261C15.0209 13.8554 16.166 12.6729 17.6029 12.6729Z" fill="white"/>
</svg>
