<svg width="53" height="52" viewBox="0 0 53 52" fill="none" xmlns="http://www.w3.org/2000/svg">
<path d="M52.3732 26.0375C52.3732 40.3615 40.6978 51.9635 26.2831 51.9635C11.8684 51.9635 0.192993 40.3615 0.192993 26.0375C0.192993 11.7135 11.8684 0.111572 26.2831 0.111572C40.6753 0.111572 52.3732 11.7135 52.3732 26.0375Z" fill="#182425"/>
<path d="M20.8496 36.5462C18.1777 36.5462 15.5507 36.5462 12.8789 36.5462C12.8564 36.3007 12.8564 36.0999 13.036 35.8991C13.9566 34.8282 14.8323 33.7349 15.7304 32.664C15.9773 32.3516 16.0896 32.0169 16.0447 31.6153C16.0447 31.5484 16.0447 31.4815 16.0447 31.3922C16.0447 27.577 16.0447 23.7394 16.0447 19.9241C16.0447 19.5002 15.9324 19.1655 15.6406 18.8532C14.8772 17.983 14.1587 17.0682 13.3953 16.1758C13.2156 15.9527 13.1707 15.7519 13.2156 15.4841C13.2606 15.4841 13.3279 15.4841 13.3728 15.4841C15.8426 15.4841 18.3349 15.4841 20.8047 15.4841C20.9394 15.4841 20.9843 15.5288 21.0517 15.6403C22.9826 19.8795 24.936 24.1187 26.8669 28.3579C26.8894 28.4248 26.9343 28.4694 26.9568 28.5587C27.069 28.3132 27.1588 28.0901 27.2486 27.867C28.8877 23.784 30.5267 19.7233 32.1882 15.6403C32.2331 15.5511 32.2556 15.4841 32.3903 15.4841C34.7703 15.4841 37.1279 15.4841 39.5079 15.4841C39.5528 15.4841 39.5977 15.4841 39.6426 15.4841C39.665 15.7296 39.665 15.9304 39.4405 16.1312C38.7669 16.7336 38.1158 17.3806 37.4646 18.0053C37.3299 18.1392 37.2626 18.2954 37.2626 18.4962C37.2626 18.5854 37.2626 18.697 37.2626 18.7862C37.2626 23.6055 37.2626 28.4471 37.2626 33.2664C37.2626 33.3779 37.2626 33.4672 37.2626 33.5787C37.2626 33.7795 37.3299 33.9357 37.4646 34.0919C38.1382 34.7389 38.8118 35.4083 39.5079 36.0553C39.6875 36.2115 39.5752 36.4123 39.5977 36.5908C36.095 36.5908 32.5924 36.5908 29.0898 36.5908C29.0673 36.3454 29.0673 36.1446 29.2918 35.9438C29.943 35.3413 30.5716 34.7166 31.2228 34.0919C31.4024 33.9357 31.4698 33.7572 31.4698 33.5118C31.4698 29.5181 31.4698 25.5243 31.4698 21.5305C31.4698 21.5082 31.4698 21.4859 31.4473 21.4636C31.4249 21.5082 31.4024 21.5752 31.3799 21.6198C29.4265 26.5283 27.4732 31.4591 25.5422 36.3677C25.4973 36.5015 25.43 36.5685 25.2728 36.5462C25.1156 36.5239 24.9809 36.5239 24.8237 36.5462C24.689 36.5462 24.6217 36.5015 24.5767 36.39C23.9481 35.0067 23.2969 33.6234 22.6683 32.2401C21.0292 28.6925 19.3902 25.1673 17.7736 21.6198C17.7511 21.5752 17.7286 21.5305 17.6613 21.4859C17.6613 21.5529 17.6613 21.6198 17.6613 21.6867C17.6613 24.9219 17.6613 28.1571 17.6613 31.3922C17.6613 31.6376 17.6613 31.8831 17.7062 32.1285C17.7511 32.307 17.8409 32.4855 17.9756 32.6417C18.8738 33.7349 19.7719 34.8282 20.6924 35.9214C20.8496 36.0999 20.8496 36.3007 20.8496 36.5462Z" fill="white"/>
</svg>
